# xmcd
#
# Track frame offsets:
#	150
#	4312
#	26468
#	46203
#	60513
#	76175
#	94048
#	108788
#	131754
#	150747
#	172599
#	183126
#	206937
#	219226
#	238595
#	263107
#	266529
#	288326
#
# Disc length: 3878 seconds
#
# Revision: 1
# Processed by: cddbd v1.5PL3 Copyright (c) Steve Scherf et al.
# Submitted via: CDmax 2.0
#
DISCID=e50f2412
DTITLE=Jorma Kaukonen and Michael Falzarano - Live at Poor David's Pub, Dallas
DTITLE=, TX - 03.18.2001 - d2
DYEAR=2001
DGENRE=Blues
TTITLE0=banter
TTITLE1=Hesitation Blues
TTITLE2=Walking Blues
TTITLE3=Trouble In Mind
TTITLE4=How Long Blues
TTITLE5=Been So Long
TTITLE6=Vampire Women
TTITLE7=Follow The Drinking Gourd
TTITLE8=I Am The Light Of This World
TTITLE9=Genesis
TTITLE10=Another Man Done Gone
TTITLE11=Parchman Farm
TTITLE12=A Life Well Lived
TTITLE13=That'll Never Happen No More
TTITLE14=Nine Pound Hammer
TTITLE15=strumming
TTITLE16=Encore: Goin' Down The Road Feelin' Bad
TTITLE17=outro
EXTD=Jorma Kaukonen and Michael Falzarano\nLive at Poor David's Pub, Dallas, T
EXTD=X - 03.18.2001\n\nSet 1: Disc 1\n01. Intro\n02. True Religion \n03. Uncl
EXTD=e Sam Blues \n04. Death Don't Have No Mercy \n05. Do Not Go Gentle \n06
EXTD=I See The Light \n07. The Terrible Operation \n08. Living In The Momen
EXTD=t \n09. Embryonic Journey \n10. Good Shepherd \n11. 99 Year Blues \n12
EXTD=Gypsy Fire \n13. San Francisco Bay Blues \n14. Big Fish \n\nSet 2: Dis
EXTD=c 2\n01. Banter\n02. Hesitation Blues \n03. Walking Blues \n04. Troubl
EXTD=e In Mind \n05. How Long Blues \n06. Been So Long \n07. Vampire Women \n
EXTD=08. Follow The Drinking Gourd \n09. I Am The Light Of This World \n10. G
EXTD=enesis \n11. Another Man Done Gone \n12. Parchman Farm \n13. A Life Wel
EXTD=l Lived \n14. That'll Never Happen No More \n15. Nine Pound Hammer\n16
EXTD=strumming\n17. Encore: Goin' Down The Road Feelin' Bad\n18. Outro
EXTT0=
EXTT1=
EXTT2=
EXTT3=
EXTT4=
EXTT5=
EXTT6=
EXTT7=
EXTT8=
EXTT9=
EXTT10=
EXTT11=
EXTT12=
EXTT13=
EXTT14=
EXTT15=
EXTT16=
EXTT17=
PLAYORDER=
